# xmcd CD database file
#
# Track frame offsets:
#       150
#       8178
#       19163
#       34710
#       50546
#       70959
#       91033
#       109143
#       123378
#       142828
#       160112
#       180195
#       190514
#       209585
#       228088
#
# Disc length: 3087 seconds
#
# Revision: 1
# Processed by: cddbd v1.5.2PL0 Copyright (c) Steve Scherf et al.
# Submitted via: jack 3.1.1
#
DISCID=b60c0d0f
DTITLE=Justis - Just is
DYEAR=2008
DGENRE=Rap
TTITLE0=Justintro
TTITLE1=I Am Hip Hop
TTITLE2=Down
TTITLE3=Get It Right feat. Mantis
TTITLE4=Tryn To Live feat. Rufus
TTITLE5=Jazz Music
TTITLE6=Music For A Rainy Day
TTITLE7=Power Of One
TTITLE8=Weekend
TTITLE9=Let It Ride
TTITLE10=Cocaine
TTITLE11=Spill The Wine
TTITLE12=Only For The Money feat. Hajah Bug
TTITLE13=Where Did The Time Go
TTITLE14=Outro
EXTD=YEAR: 2008
EXTT0=
EXTT1=
EXTT2=
EXTT3=
EXTT4=
EXTT5=
EXTT6=
EXTT7=
EXTT8=
EXTT9=
EXTT10=
EXTT11=
EXTT12=
EXTT13=
EXTT14=
PLAYORDER=
